HIERARCHY
ROOT Hips
{
  OFFSET -4.35178 90.3298 111.633
  CHANNELS 6 Xposition Yposition Zposition Zrotation Xrotation Yrotation
  JOINT LeftUpLeg
  {
    OFFSET 0.103456 1.85784 10.5485
    CHANNELS 6 Xposition Yposition Zposition Zrotation Xrotation Yrotation
    JOINT LeftLeg
    {
      OFFSET 43.5 -4.2e-05 0
      CHANNELS 6 Xposition Yposition Zposition Zrotation Xrotation Yrotation
      JOINT LeftFoot
      {
        OFFSET 42.3722 1.9e-05 0
        CHANNELS 6 Xposition Yposition Zposition Zrotation Xrotation Yrotation
        JOINT LeftToe
        {
          OFFSET 17.3 0 0
          CHANNELS 6 Xposition Yposition Zposition Zrotation Xrotation Yrotation
          End Site
          {
            OFFSET 0 0 0
          }
        }
      }
    }
  }
  JOINT RightUpLeg
  {
    OFFSET 0.103456 1.85782 -10.5485
    CHANNELS 6 Xposition Yposition Zposition Zrotation Xrotation Yrotation
    JOINT RightLeg
    {
      OFFSET 43.5 -2.7e-05 0
      CHANNELS 6 Xposition Yposition Zposition Zrotation Xrotation Yrotation
      JOINT RightFoot
      {
        OFFSET 42.3723 0 0
        CHANNELS 6 Xposition Yposition Zposition Zrotation Xrotation Yrotation
        JOINT RightToe
        {
          OFFSET 17.3 0 1.7e-05
          CHANNELS 6 Xposition Yposition Zposition Zrotation Xrotation Yrotation
          End Site
          {
            OFFSET 0 0 0
          }
        }
      }
    }
  }
  JOINT Spine
  {
    OFFSET 6.90197 -2.60373 0
    CHANNELS 6 Xposition Yposition Zposition Zrotation Xrotation Yrotation
    JOINT Spine1
    {
      OFFSET 12.5881 0 0
      CHANNELS 6 Xposition Yposition Zposition Zrotation Xrotation Yrotation
      JOINT Spine2
      {
        OFFSET 12.3432 -1.8e-05 0
        CHANNELS 6 Xposition Yposition Zposition Zrotation Xrotation Yrotation
        JOINT Neck
        {
          OFFSET 25.8329 2.3e-05 0
          CHANNELS 6 Xposition Yposition Zposition Zrotation Xrotation Yrotation
          JOINT Head
          {
            OFFSET 11.7666 0 0
            CHANNELS 6 Xposition Yposition Zposition Zrotation Xrotation Yrotation
            End Site
            {
              OFFSET 0 0 0
            }
          }
        }
        JOINT LeftShoulder
        {
          OFFSET 19.7459 -1.48035 6.0001
          CHANNELS 6 Xposition Yposition Zposition Zrotation Xrotation Yrotation
          JOINT LeftArm
          {
            OFFSET 11.2841 1.8e-05 -2e-05
            CHANNELS 6 Xposition Yposition Zposition Zrotation Xrotation Yrotation
            JOINT LeftForeArm
            {
              OFFSET 33 -1.3e-05 1.9e-05
              CHANNELS 6 Xposition Yposition Zposition Zrotation Xrotation Yrotation
              JOINT LeftHand
              {
                OFFSET 25.2 3.2e-05 1.1e-05
                CHANNELS 6 Xposition Yposition Zposition Zrotation Xrotation Yrotation
                End Site
                {
                  OFFSET 0 0 0
                }
              }
            }
          }
        }
        JOINT RightShoulder
        {
          OFFSET 19.7461 -1.48036 -6.00008
          CHANNELS 6 Xposition Yposition Zposition Zrotation Xrotation Yrotation
          JOINT RightArm
          {
            OFFSET 11.2841 0 0
            CHANNELS 6 Xposition Yposition Zposition Zrotation Xrotation Yrotation
            JOINT RightForeArm
            {
              OFFSET 33.0001 1.6e-05 0
              CHANNELS 6 Xposition Yposition Zposition Zrotation Xrotation Yrotation
              JOINT RightHand
              {
                OFFSET 25.1998 0.000123 0.000432
                CHANNELS 6 Xposition Yposition Zposition Zrotation Xrotation Yrotation
                End Site
                {
                  OFFSET 0 0 0
                }
              }
            }
          }
        }
      }
    }
  }
}
MOTION
Frames:	11
Frame Time:	0.0333333
-70.5752 89.3467 -167.86 -76.9711 62.0052 171.125 0.103456 1.85784 10.5485 0.129618 9.24195 -174.732 43.5 -4.2e-05 1e-05 -22.4966 -6.33972 -3.27249 42.3722 1.9e-05 1.42109e-14 77.7849 -0.787774 -1.40002 17.3 1.42109e-14 3e-06 21.4546 -1e-06 0.003093 0.103456 1.85782 -10.5485 12.5605 -10.9837 177.838 43.5 -2.7e-05 4e-06 -5.8679 14.7267 5.06193 42.3723 0 1e-05 86.2276 12.1672 -10.9013 17.3 -6e-06 1.7e-05 21.4546 -1.9e-05 -0.003116 6.90197 -2.60373 -3e-06 7.13999 1.02324 -0.301828 12.5881 1e-05 8e-06 4.25197 2.05503 -0.728347 12.3432 -1.8e-05 -5e-06 3.90735 2.0675 -0.843572 25.8329 2.3e-05 7e-06 7.71095 6.64766 -8.83718 11.7666 -8e-06 -6e-06 -16.4583 0.599937 17.5052 19.7459 -1.48035 6.0001 -179.215 0.184082 -82.4712 11.2841 1.8e-05 -2e-05 -20.3081 -7.20167 64.647 33 -1.3e-05 1.9e-05 -25.6117 5.73622 -6.23669 25.2 3.2e-05 1.1e-05 -13.8653 28.0077 4.5257 19.7461 -1.48036 -6.00008 -170.499 -6.53535 63.0532 11.2841 2.84217e-14 -1e-06 -24.2959 -16.9565 -42.016 33.0001 1.6e-05 -1e-06 -42.9499 2.10493 15.6623 25.1998 0.000123 0.000432 5.78708 -18.1549 12.333 
-70.687 89.3495 -167.855 -76.8894 62.2004 171.031 0.103456 1.85784 10.5485 0.0924876 9.22414 -174.635 43.5 -4.2e-05 1e-05 -22.5516 -6.38422 -3.28796 42.3722 1.9e-05 0 77.7857 -0.887364 -1.27673 17.3 1.42109e-14 3e-06 21.4546 -1e-06 0.003093 0.103456 1.85782 -10.5485 12.5134 -10.764 177.939 43.5 -2.7e-05 4e-06 -5.90093 14.6946 5.01087 42.3723 0 1e-05 86.2493 12.1417 -10.929 17.3 -6e-06 1.7e-05 21.4546 -1.9e-05 -0.003116 6.90197 -2.60373 -3e-06 7.14254 1.00225 -0.301826 12.5881 1e-05 8e-06 4.25708 2.01372 -0.717399 12.3432 -1.8e-05 -5e-06 3.91296 2.02703 -0.830105 25.8329 2.3e-05 7e-06 7.66195 6.57367 -8.75057 11.7666 -8e-06 -6e-06 -16.1432 0.518619 17.5152 19.7459 -1.48035 6.0001 -179.237 0.197664 -82.5131 11.2841 1.8e-05 -2e-05 -20.2593 -7.23022 64.627 33 -1.3e-05 1.9e-05 -25.6508 5.68541 -6.20446 25.2 3.2e-05 1.1e-05 -13.8963 27.9064 4.60048 19.7461 -1.48036 -6.00008 -170.476 -6.62363 63.128 11.2841 0 -1e-06 -24.4253 -17.0171 -42.0895 33.0001 1.6e-05 -1e-06 -42.8946 2.12058 15.6165 25.1998 0.000123 0.000432 5.78195 -18.2021 12.3794 
-70.8156 89.3465 -167.861 -76.8508 62.4434 170.969 0.103456 1.85784 10.5485 0.0224561 9.28409 -174.563 43.5 -4.2e-05 1e-05 -22.6295 -6.4272 -3.29262 42.3722 1.9e-05 0 77.7661 -0.934674 -1.16833 17.3 0 3e-06 21.4546 -1e-06 0.003093 0.103456 1.85782 -10.5485 13.201 -10.8538 177.992 43.5 -2.7e-05 4e-06 -5.12125 14.6368 5.15385 42.3723 0 1e-05 86.2068 12.0241 -10.7461 17.3 -6e-06 1.7e-05 21.4546 -1.9e-05 -0.003116 6.90197 -2.60373 -3e-06 7.15191 0.984532 -0.299267 12.5881 1e-05 8e-06 4.27601 1.9789 -0.709991 12.3432 -1.8e-05 -5e-06 3.93231 1.99302 -0.820534 25.8329 2.3e-05 7e-06 7.63481 6.5262 -8.69639 11.7666 -8e-06 -6e-06 -15.9008 0.477992 17.5329 19.7459 -1.48035 6.0001 -179.269 0.201177 -82.5897 11.2841 1.8e-05 -2e-05 -20.2403 -7.27501 64.6433 33 -1.3e-05 1.9e-05 -25.7141 5.67906 -6.1711 25.2 3.2e-05 1.1e-05 -13.9124 27.9442 4.57487 19.7461 -1.48036 -6.00008 -170.456 -6.72181 63.1921 11.2841 0 -1e-06 -24.4606 -16.9257 -42.1422 33.0001 1.6e-05 -1e-06 -42.923 2.071 15.6361 25.1998 0.000123 0.000432 5.82839 -18.2449 12.4147 
-70.959 89.3459 -167.862 -76.819 62.5956 170.924 0.103456 1.85784 10.5485 -0.076438 9.31765 -174.45 43.5 -4.2e-05 1e-05 -22.7279 -6.45246 -3.30865 42.3722 1.9e-05 -1.42109e-14 77.7457 -0.954109 -1.07371 17.3 1.42109e-14 3e-06 21.4546 -1e-06 0.003093 0.103456 1.85782 -10.5485 12.482 -10.817 178.095 43.5 -2.7e-05 4e-06 -5.70291 14.62 4.99366 42.3723 0 1e-05 86.1684 11.9662 -10.6566 17.3 -6e-06 1.7e-05 21.4546 -1.9e-05 -0.003116 6.90197 -2.60373 -3e-06 7.17274 0.969347 -0.295741 12.5881 1e-05 8e-06 4.31785 1.94934 -0.702746 12.3432 -1.8e-05 -5e-06 3.9745 1.96458 -0.811408 25.8329 2.3e-05 7e-06 7.60951 6.59289 -8.68763 11.7666 -8e-06 -6e-06 -15.7525 0.528912 17.6559 19.7459 -1.48035 6.0001 -179.322 0.23562 -82.7067 11.2841 1.8e-05 -2e-05 -20.2188 -7.35371 64.6448 33 -1.3e-05 1.9e-05 -25.792 5.68152 -6.11342 25.2 3.2e-05 1.1e-05 -13.8917 27.9747 4.56999 19.7461 -1.48036 -6.00008 -170.444 -6.77673 63.2492 11.2841 0 -1e-06 -24.4599 -16.8233 -42.2133 33.0001 1.6e-05 -1e-06 -43.0383 2.1555 15.6107 25.1998 0.000123 0.000432 5.80005 -18.2095 12.3987 
-71.1036 89.3451 -167.866 -76.8602 62.717 170.947 0.103456 1.85784 10.5485 -0.175728 9.38341 -174.345 43.5 -4.2e-05 1e-05 -22.7737 -6.46396 -3.34012 42.3722 1.9e-05 1.42109e-14 77.7018 -0.945802 -1.03051 17.3 0 3e-06 21.4546 -1e-06 0.003093 0.103456 1.85782 -10.5485 12.5374 -10.7911 178.178 43.5 -2.7e-05 4e-06 -5.53222 14.5952 4.9993 42.3723 0 1e-05 86.135 11.9413 -10.5717 17.3 -6e-06 1.7e-05 21.4546 -1.9e-05 -0.003116 6.90197 -2.60373 -3e-06 7.1859 0.939349 -0.291952 12.5881 1e-05 8e-06 4.34443 1.89035 -0.689611 12.3432 -1.8e-05 -5e-06 4.00179 1.90696 -0.794621 25.8329 2.3e-05 7e-06 7.57721 6.52373 -8.60644 11.7666 -8e-06 -6e-06 -15.5526 0.4466 17.679 19.7459 -1.48035 6.0001 -179.37 0.235657 -82.8086 11.2841 1.8e-05 -2e-05 -20.1994 -7.4143 64.673 33 -1.3e-05 1.9e-05 -25.8777 5.67496 -6.0715 25.2 3.2e-05 1.1e-05 -13.8978 28.0314 4.53161 19.7461 -1.48036 -6.00008 -170.447 -6.88991 63.3467 11.2841 -2.84217e-14 -1e-06 -24.5079 -16.7657 -42.2691 33.0001 1.6e-05 -1e-06 -43.1677 2.16419 15.6156 25.1998 0.000123 0.000432 5.72216 -18.2004 12.3924 
-71.2511 89.3464 -167.869 -76.9438 62.808 171.024 0.103456 1.85784 10.5485 -0.308512 9.43399 -174.269 43.5 -4.2e-05 1e-05 -22.8222 -6.46027 -3.34769 42.3722 1.9e-05 0 77.6153 -0.964682 -0.998157 17.3 1.42109e-14 3e-06 21.4546 -1e-06 0.003093 0.103456 1.85782 -10.5485 12.3079 -10.7577 178.238 43.5 -2.7e-05 4e-06 -5.63475 14.5955 4.97392 42.3723 -2.84217e-14 1e-05 86.125 11.8901 -10.5294 17.3 -6e-06 1.7e-05 21.4546 -1.9e-05 -0.003116 6.90197 -2.60373 -3e-06 7.21287 0.918647 -0.288347 12.5881 1e-05 8e-06 4.39858 1.84987 -0.679888 12.3432 -1.8e-05 -5e-06 4.05643 1.86797 -0.782334 25.8329 2.3e-05 7e-06 7.581 6.57172 -8.61552 11.7666 -8e-06 -6e-06 -15.3755 0.539085 17.7357 19.7459 -1.48035 6.0001 -179.438 0.256425 -82.952 11.2841 1.8e-05 -2e-05 -20.1264 -7.53179 64.7419 33 -1.3e-05 1.9e-05 -25.9981 5.71037 -6.04379 25.2 3.2e-05 1.1e-05 -14.06 28.0103 4.55576 19.7461 -1.48036 -6.00008 -170.482 -6.94033 63.4174 11.2841 2.84217e-14 -1e-06 -24.5064 -16.6354 -42.2954 33.0001 1.6e-05 -1e-06 -43.3147 2.18142 15.6048 25.1998 0.000123 0.000432 5.78967 -18.2078 12.3933 
-71.402 89.3484 -167.872 -77.0241 62.8797 171.095 0.103456 1.85784 10.5485 -0.421908 9.47812 -174.19 43.5 -4.2e-05 1e-05 -22.8352 -6.44709 -3.35941 42.3722 1.9e-05 0 77.5115 -0.975246 -0.977284 17.3 0 3e-06 21.4546 -1e-06 0.003093 0.103456 1.85782 -10.5485 12.2307 -10.7591 178.293 43.5 -2.7e-05 4e-06 -5.62029 14.5961 4.99781 42.3723 -2.84217e-14 1e-05 86.1056 11.8276 -10.4831 17.3 -6e-06 1.7e-05 21.4546 -1.9e-05 -0.003116 6.90197 -2.60373 -3e-06 7.23874 0.88162 -0.280262 12.5881 1e-05 8e-06 4.45062 1.77763 -0.658913 12.3432 -1.8e-05 -5e-06 4.10936 1.79793 -0.756855 25.8329 2.3e-05 7e-06 7.52332 6.43632 -8.49963 11.7666 -8e-06 -6e-06 -14.9355 0.415875 17.7045 19.7459 -1.48035 6.0001 -179.507 0.225507 -83.0709 11.2841 1.8e-05 -2e-05 -19.9666 -7.69603 64.8242 33 -1.3e-05 1.9e-05 -26.0623 5.66698 -6.0129 25.2 3.2e-05 1.1e-05 -14.0222 27.9994 4.55895 19.7461 -1.48036 -6.00008 -170.482 -7.07978 63.5218 11.2841 0 -1e-06 -24.5026 -16.4934 -42.3051 33.0001 1.6e-05 -1e-06 -43.4382 2.1256 15.6241 25.1998 0.000123 0.000432 5.73571 -18.2212 12.3869 
-71.5433 89.3504 -167.883 -77.1382 62.8933 171.202 0.103456 1.85784 10.5485 -0.551702 9.48975 -174.106 43.5 -4.2e-05 1e-05 -22.8283 -6.43646 -3.3767 42.3722 1.9e-05 2.84217e-14 77.448 -0.945041 -0.95798 17.3 0 3e-06 21.4546 -1e-06 0.003093 0.103456 1.85782 -10.5485 12.1498 -10.7566 178.368 43.5 -2.7e-05 4e-06 -5.5906 14.5893 4.99398 42.3723 0 1e-05 86.0658 11.8053 -10.4454 17.3 -6e-06 1.7e-05 21.4546 -1.9e-05 -0.003116 6.90197 -2.60373 -3e-06 7.26481 0.839481 -0.262449 12.5881 1e-05 8e-06 4.50302 1.6967 -0.617818 12.3432 -1.8e-05 -5e-06 4.16268 1.72049 -0.710779 25.8329 2.3e-05 7e-06 7.40754 6.04626 -8.20071 11.7666 -8e-06 -6e-06 -14.3884 -0.0524296 17.5394 19.7459 -1.48035 6.0001 -179.614 0.168006 -83.1814 11.2841 1.8e-05 -2e-05 -19.9538 -7.80501 64.912 33 -1.3e-05 1.9e-05 -26.1556 5.67311 -5.98097 25.2 3.2e-05 1.1e-05 -14.0497 28.0246 4.54605 19.7461 -1.48036 -6.00008 -170.444 -7.40841 63.711 11.2841 0 -1e-06 -24.6377 -16.4873 -42.2649 33.0001 1.6e-05 -1e-06 -43.4227 2.21401 15.5876 25.1998 0.000123 0.000432 5.75984 -18.293 12.5211 
-71.6872 89.3522 -167.92 -77.2687 62.8448 171.337 0.103456 1.85784 10.5485 -0.701691 9.48108 -174.038 43.5 -4.2e-05 1e-05 -22.8511 -6.39658 -3.37658 42.3722 1.9e-05 0 77.3685 -0.961631 -0.991187 17.3 0 3e-06 21.4546 -1e-06 0.003093 0.103456 1.85782 -10.5485 12.0707 -10.7398 178.433 43.5 -2.7e-05 4e-06 -5.58008 14.6108 4.99215 42.3723 -2.84217e-14 1e-05 86.0951 11.8213 -10.4648 17.3 -6e-06 1.7e-05 21.4546 -1.9e-05 -0.003116 6.90197 -2.60373 -3e-06 7.30424 0.803713 -0.252068 12.5881 1e-05 8e-06 4.5822 1.62735 -0.592513 12.3432 -1.8e-05 -5e-06 4.24267 1.65407 -0.681125 25.8329 2.3e-05 7e-06 7.30481 5.83938 -8.01369 11.7666 -8e-06 -6e-06 -13.9162 -0.329298 17.5159 19.7459 -1.48035 6.0001 -179.714 0.143582 -83.3057 11.2841 1.8e-05 -2e-05 -19.8361 -7.96029 64.9893 33 -1.3e-05 1.9e-05 -26.297 5.67009 -5.93214 25.2 3.2e-05 1.1e-05 -14.1573 27.9745 4.5935 19.7461 -1.48036 -6.00008 -170.454 -7.58113 63.8621 11.2841 0 -1e-06 -24.6337 -16.385 -42.1889 33.0001 1.6e-05 -1e-06 -43.5108 2.30558 15.5427 25.1998 0.000123 0.000432 5.72853 -18.2565 12.4991 
-71.8217 89.3571 -167.938 -77.4179 62.7931 171.501 0.103456 1.85784 10.5485 -0.869585 9.47138 -173.979 43.5 -4.2e-05 1e-05 -22.8953 -6.3616 -3.3708 42.3722 1.9e-05 0 77.3099 -0.92048 -1.01649 17.3 0 3e-06 21.4546 -1e-06 0.003093 0.103456 1.85782 -10.5485 11.9654 -10.6955 178.453 43.5 -2.7e-05 4e-06 -5.61994 14.6168 5.02582 42.3723 2.84217e-14 1e-05 86.1677 11.8571 -10.45 17.3 -6e-06 1.7e-05 21.4546 -1.9e-05 -0.003116 6.90197 -2.60373 -3e-06 7.34671 0.771884 -0.24298 12.5881 1e-05 8e-06 4.66744 1.56597 -0.570348 12.3432 -1.8e-05 -5e-06 4.32865 1.59546 -0.655075 25.8329 2.3e-05 7e-06 7.21092 5.6025 -7.80991 11.7666 -8e-06 -6e-06 -13.5461 -0.659688 17.487 19.7459 -1.48035 6.0001 -179.819 0.10442 -83.4018 11.2841 1.8e-05 -2e-05 -19.7576 -8.06656 65.0133 33 -1.3e-05 1.9e-05 -26.5174 5.68256 -5.86985 25.2 3.2e-05 1.1e-05 -14.1959 28.0334 4.56806 19.7461 -1.48036 -6.00008 -170.458 -7.77655 64.0218 11.2841 0 -1e-06 -24.6819 -16.2998 -42.1155 33.0001 1.6e-05 -1e-06 -43.5438 2.21525 15.5544 25.1998 0.000123 0.000432 5.80808 -18.352 12.5788 
-71.9603 89.3648 -167.947 -77.5595 62.7084 171.655 0.103456 1.85784 10.5485 -1.02217 9.47868 -173.921 43.5 -4.2e-05 1e-05 -22.9113 -6.322 -3.37584 42.3722 1.9e-05 0 77.2518 -0.884914 -1.06451 17.3 1.42109e-14 3e-06 21.4546 -1e-06 0.003093 0.103456 1.85782 -10.5485 11.8592 -10.6819 178.473 43.5 -2.7e-05 4e-06 -5.7209 14.6352 5.07254 42.3723 2.84217e-14 1e-05 86.2821 11.8609 -10.451 17.3 -6e-06 1.7e-05 21.4546 -1.9e-05 -0.003116 6.90197 -2.60373 -3e-06 7.39935 0.753074 -0.233922 12.5881 1e-05 8e-06 4.77283 1.53063 -0.55016 12.3432 -1.8e-05 -5e-06 4.43443 1.56304 -0.632571 25.8329 2.3e-05 7e-06 7.11379 5.49612 -7.67274 11.7666 -8e-06 -6e-06 -13.243 -0.851862 17.5469 19.7459 -1.48035 6.0001 -179.907 0.114945 -83.533 11.2841 1.8e-05 -2e-05 -19.5433 -8.26768 65.0769 33 -1.3e-05 1.9e-05 -26.7269 5.59308 -5.79123 25.2 3.2e-05 1.1e-05 -14.1389 28.0304 4.56792 19.7461 -1.48036 -6.00008 -170.479 -7.91276 64.1874 11.2841 0 -1e-06 -24.6482 -16.1661 -42.0129 33.0001 1.6e-05 -1e-06 -43.6541 2.22129 15.5349 25.1998 0.000123 0.000432 5.7785 -18.3545 12.5737 
